# xmcd
#
# Track frame offsets: 
#        150
#        20124
#        40043
#        57351
#        80608
#        103896
#        122136
#        137648
#        158910
#        187859
#
# Disc length: 2884 seconds
#
# Revision: 3
# Processed by: cddbd v1.5.2PL0 Copyright (c) Steve Scherf et al.
# Submitted via: ExactAudioCopy v0.99pb5
#
DISCID=840b420a
DTITLE=Fleetwood Mac - Fleetwood Mac
DYEAR=2001
DGENRE=Blues
TTITLE0=Got To Move
TTITLE1=Bleeding Heart
TTITLE2=Buzz Me
TTITLE3=I Held My Baby Last Night
TTITLE4=My Baby's A Good Un
TTITLE5=How Blue Can You Get
TTITLE6=My Baby's Sweet
TTITLE7=The World Keeps On Turning
TTITLE8=The Dream
TTITLE9=Don't Know Which Way To Go
EXTD=
EXTT0=
EXTT1=
EXTT2=
EXTT3=
EXTT4=
EXTT5=
EXTT6=
EXTT7=
EXTT8=
EXTT9=
PLAYORDER=
